<svg width="900" height="640" viewBox="0 0 900 640" fill="none" xmlns="http://www.w3.org/2000/svg">
  <rect width="900" height="640" rx="36" fill="url(#bg)"/>
  <circle cx="675" cy="140" r="210" fill="#2DD4BF" opacity="0.18"/>
  <circle cx="260" cy="440" r="240" fill="#4F8CFF" opacity="0.14"/>
  <g filter="url(#shadow)">
    <rect x="150" y="120" width="560" height="360" rx="38" fill="white" opacity="0.92"/>
    <rect x="188" y="164" width="290" height="250" rx="26" fill="#071A2D"/>
    <circle cx="332" cy="288" r="82" fill="#0F3558" stroke="#2DD4BF" stroke-width="10"/>
    <circle cx="332" cy="288" r="42" fill="#1E5C8E" opacity="0.55"/>
    <path d="M332 198C381.7 198 422 238.3 422 288" stroke="#D4AF37" stroke-width="6" stroke-linecap="round"/>
    <rect x="505" y="176" width="154" height="42" rx="12" fill="#EAF6FF"/>
    <rect x="505" y="239" width="104" height="18" rx="9" fill="#2DD4BF" opacity="0.65"/>
    <rect x="505" y="274" width="132" height="18" rx="9" fill="#4F8CFF" opacity="0.55"/>
    <rect x="505" y="309" width="86" height="18" rx="9" fill="#D4AF37" opacity="0.65"/>
    <rect x="506" y="365" width="122" height="48" rx="16" fill="#071A2D"/>
  </g>
  <path d="M82 512C200 458 305 503 405 478C520 449 560 350 708 375C780 387 825 430 866 472" stroke="white" stroke-width="2" opacity="0.35"/>
  <defs>
    <linearGradient id="bg" x1="0" x2="900" y1="0" y2="640" gradientUnits="userSpaceOnUse"><stop stop-color="#EEF8FF"/><stop offset="1" stop-color="#FFFFFF"/></linearGradient>
    <filter id="shadow" x="100" y="70" width="660" height="460" filterUnits="userSpaceOnUse" color-interpolation-filters="sRGB"><feDropShadow dx="0" dy="32" stdDeviation="35" flood-color="#071A2D" flood-opacity="0.16"/></filter>
  </defs>
</svg>
