<svg width="190" height="44" viewBox="0 0 190 44" fill="none" xmlns="http://www.w3.org/2000/svg" role="img" aria-label="MedCore Engineering logo">
  <rect x="0.5" y="0.5" width="43" height="43" rx="14" fill="#071A2D" stroke="#2DD4BF"/>
  <path d="M12 26.5L20.5 12L25.5 21L31.5 12H36L25.7 32L20.5 23L15.2 32H10.5L12 26.5Z" fill="url(#g)"/>
  <path d="M53 14.5H61.5L67 27L72.5 14.5H81V35H75.7V22.8L69.9 35H64.2L58.4 22.8V35H53V14.5Z" fill="#071A2D"/>
  <path d="M86.5 14.5H102V19H91.9V22.4H101.2V26.6H91.9V30.5H102.3V35H86.5V14.5Z" fill="#071A2D"/>
  <path d="M107.6 14.5H116.2C122.9 14.5 127.4 18.5 127.4 24.7C127.4 31 122.9 35 116.2 35H107.6V14.5ZM116.1 30.2C119.7 30.2 121.9 28.2 121.9 24.7C121.9 21.3 119.7 19.3 116.1 19.3H113V30.2H116.1Z" fill="#071A2D"/>
  <path d="M132.3 14.5H147.7V19H137.7V23.1H146.8V27.5H137.7V35H132.3V14.5Z" fill="#071A2D"/>
  <path d="M151.8 14.5H157.3V35H151.8V14.5Z" fill="#071A2D"/>
  <path d="M162.9 14.5H168.2L177.3 26.2V14.5H182.7V35H177.8L168.3 22.8V35H162.9V14.5Z" fill="#071A2D"/>
  <defs><linearGradient id="g" x1="10.5" y1="12" x2="36" y2="32" gradientUnits="userSpaceOnUse"><stop stop-color="#4F8CFF"/><stop offset="0.48" stop-color="#2DD4BF"/><stop offset="1" stop-color="#D4AF37"/></linearGradient></defs>
</svg>
