<svg width="900" height="520" viewBox="0 0 900 520" fill="none" xmlns="http://www.w3.org/2000/svg">
  <rect width="900" height="520" rx="28" fill="#F4FAFF"/>
  <path d="M93 250C135 210 179 228 215 205C246 185 249 154 305 162C351 169 371 202 411 190C469 173 493 106 558 137C606 160 596 206 653 214C716 223 749 176 808 206C847 226 870 272 851 311C821 373 717 337 667 371C611 409 563 439 498 407C445 381 427 331 368 344C296 360 264 425 194 394C143 372 141 314 93 250Z" fill="#DCEEF9" stroke="#BFDCEE" stroke-width="2"/>
  <path d="M119 270C155 242 184 250 218 232C263 207 269 187 314 196C365 206 377 232 423 222C465 213 492 176 536 179C583 182 593 235 646 244C717 256 737 222 793 248C828 264 843 302 821 329C782 379 704 337 651 383C603 424 546 432 497 394C447 355 430 320 371 329C299 340 267 395 214 367C176 347 169 300 119 270Z" fill="#FFFFFF" opacity="0.82"/>
  <g fill="#4F8CFF"><circle cx="228" cy="286" r="8"/><circle cx="370" cy="250" r="8"/><circle cx="512" cy="214" r="8"/><circle cx="618" cy="282" r="8"/><circle cx="733" cy="296" r="8"/></g>
  <g fill="#2DD4BF"><circle cx="290" cy="337" r="7"/><circle cx="452" cy="333" r="7"/><circle cx="560" cy="368" r="7"/></g>
  <g opacity="0.5" stroke="#4F8CFF"><path d="M228 286L370 250L512 214L618 282L733 296"/><path d="M290 337L452 333L560 368"/></g>
  <rect x="48" y="36" width="256" height="78" rx="22" fill="white" stroke="#D7E8F4"/>
  <text x="72" y="68" fill="#071A2D" font-size="22" font-family="Arial" font-weight="700">30+ регионов</text>
  <text x="72" y="94" fill="#557086" font-size="14" font-family="Arial">демо-карта проектной географии</text>
</svg>
